<svg xmlns="http://www.w3.org/2000/svg" viewBox="0 0 341 305">
<path d="M 0,0 L 0,304 L 340,304 L 340,0 Z" fill="#f0f3f6"/>
<path d="M 86,209 L 113,209 L 135,215 L 134,212 L 114,205 L 98,205 Z" fill="#84a8ad"/>
<path d="M 136,186 L 156,201 L 171,219 L 172,216 L 169,210 L 156,194 L 146,188 Z" fill="#84a8ad"/>
<path d="M 231,156 L 218,155 L 209,159 L 195,178 L 207,180 L 215,177 L 224,169 Z" fill="#d57cf4"/>
<path d="M 91,150 L 95,159 L 105,169 L 103,170 L 118,169 L 106,154 L 98,150 Z" fill="#d57cf4"/>
<path d="M 169,138 L 169,156 L 166,158 L 169,165 L 177,174 L 181,172 L 188,175 L 188,161 L 184,149 L 179,143 Z" fill="#d57cf4"/>
<path d="M 140,126 L 130,133 L 125,142 L 124,158 L 126,165 L 132,162 L 140,151 L 142,143 Z" fill="#d57cf4"/>
<path d="M 239,126 L 228,125 L 222,127 L 217,148 L 226,144 L 234,136 Z" fill="#d57cf4"/>
<path d="M 81,121 L 81,126 L 90,137 L 86,122 Z" fill="#d57cf4"/>
<path d="M 177,109 L 177,122 L 184,138 L 191,117 L 186,112 Z" fill="#d57cf4"/>
<path d="M 128,98 L 122,101 L 115,109 L 124,129 L 130,114 Z" fill="#d57cf4"/>
<path d="M 248,96 L 234,95 L 226,99 L 218,108 L 220,118 L 229,117 L 236,113 Z" fill="#d57cf4"/>
<path d="M 67,92 L 74,105 L 80,112 L 85,113 L 87,101 L 74,92 Z" fill="#d57cf4"/>
<path d="M 186,78 L 187,97 L 192,107 L 197,111 L 205,103 L 204,95 L 201,88 L 194,81 Z" fill="#d57cf4"/>
<path d="M 116,68 L 106,75 L 100,88 L 100,97 L 108,104 L 113,99 L 117,90 L 118,78 Z" fill="#d57cf4"/>
<path d="M 257,66 L 244,65 L 239,67 L 235,87 L 243,84 Z" fill="#d57cf4"/>
<path d="M 55,64 L 66,79 L 62,64 Z" fill="#d57cf4"/>
<path d="M 195,48 L 195,65 L 201,77 L 209,58 L 204,52 Z" fill="#d57cf4"/>
<path d="M 104,40 L 98,43 L 91,51 L 100,71 L 105,61 Z" fill="#d57cf4"/>
<path d="M 230,41 L 225,42 L 214,53 L 200,43 L 192,41 L 189,44 L 188,61 L 191,72 L 183,71 L 180,75 L 180,94 L 183,102 L 172,103 L 171,124 L 173,132 L 165,132 L 162,141 L 164,157 L 168,155 L 167,138 L 171,137 L 185,148 L 189,158 L 189,176 L 182,174 L 177,176 L 186,181 L 187,185 L 176,210 L 159,189 L 149,183 L 133,180 L 128,173 L 144,157 L 148,144 L 148,134 L 145,121 L 135,121 L 136,105 L 133,92 L 122,92 L 124,85 L 123,70 L 120,62 L 111,63 L 112,48 L 109,35 L 107,33 L 99,35 L 85,48 L 68,37 L 64,43 L 62,57 L 47,57 L 39,60 L 37,63 L 42,73 L 56,86 L 49,91 L 52,99 L 69,115 L 63,118 L 61,122 L 67,132 L 80,144 L 73,150 L 79,161 L 88,170 L 100,176 L 110,177 L 122,173 L 127,179 L 123,182 L 123,185 L 131,190 L 135,204 L 131,205 L 112,199 L 99,199 L 83,204 L 73,211 L 72,215 L 75,217 L 105,214 L 123,217 L 138,224 L 136,270 L 138,271 L 152,257 L 170,232 L 184,206 L 191,185 L 193,183 L 200,186 L 208,186 L 220,181 L 230,171 L 236,161 L 238,153 L 230,149 L 239,140 L 246,127 L 246,122 L 238,119 L 248,109 L 254,99 L 255,92 L 248,88 L 260,74 L 264,63 L 256,59 L 237,61 L 234,47 Z" fill="#2f4a72"/>
<path d="M 80,151 L 91,165 L 100,170 L 104,169 L 90,153 L 91,149 L 96,149 Z" fill="#9e55d4"/>
<path d="M 68,123 L 80,137 L 93,142 L 90,135 L 89,137 L 79,124 L 81,120 L 84,120 L 75,120 Z" fill="#9e55d4"/>
<path d="M 210,108 L 200,118 L 192,135 L 191,148 L 195,164 L 208,151 L 212,141 L 214,126 Z" fill="#9e55d4"/>
<path d="M 94,102 L 93,123 L 96,133 L 101,142 L 117,155 L 119,136 L 116,127 L 109,115 Z" fill="#9e55d4"/>
<path d="M 56,93 L 67,107 L 84,113 L 78,110 L 67,97 L 66,92 L 72,91 Z" fill="#9e55d4"/>
<path d="M 44,64 L 56,79 L 69,84 L 65,79 L 66,77 L 65,79 L 54,65 L 59,62 Z" fill="#9e55d4"/>
<path d="M 228,48 L 217,58 L 210,72 L 208,87 L 213,101 L 226,90 L 229,81 L 231,61 Z" fill="#9e55d4"/>
<path d="M 70,44 L 68,58 L 71,73 L 79,87 L 91,95 L 93,94 L 95,81 L 93,72 L 84,56 Z" fill="#9e55d4"/>
</svg>