<?xml version="1.0" encoding="UTF-8"?>
<svg xmlns="http://www.w3.org/2000/svg" xmlns:xlink="http://www.w3.org/1999/xlink" width="5000" height="5000" viewBox="0 0 5000 5000">
<path fill-rule="evenodd" fill="rgb(17.700195%, 43.60199%, 26.904297%)" fill-opacity="1" d="M 2731.339844 3148.828125 C 2783.691406 2806.949219 2849.351562 2470.46875 3050.878906 2127.699219 C 3091.550781 2058.511719 3172.941406 1943.089844 3202.300781 1716.878906 C 3222.929688 1557.898438 3217.960938 1344.578125 3155.890625 1054.789062 L 3154.179688 1047.019531 L 3169.71875 1043.601562 L 3171.429688 1051.371094 C 3237.160156 1343.449219 3244.148438 1558.898438 3224.96875 1719.699219 C 3197.339844 1951.351562 3115.488281 2070.308594 3074.628906 2141.488281 C 2790.5 2636.398438 2787.308594 3115.589844 2700.609375 3617.070312 C 2831.050781 3376.289062 3063.578125 3116.230469 3236.308594 3012.589844 C 3255.628906 3001 3339.910156 2982.390625 3341.800781 3023.128906 C 3342.761719 3043.960938 3340.75 3067.410156 3331.25 3086.421875 C 3181.089844 3386.738281 2925.140625 3661.539062 2652.320312 3854.5 C 2635.96875 3922.890625 2617.101562 3991.710938 2594.820312 4061.132812 C 2546.570312 4211.503906 2482.5 4364.636719 2393.960938 4521.488281 L 2380.761719 4544.59375 L 2334.550781 4518.191406 L 2347.75 4495.089844 C 2436.058594 4342.351562 2500.339844 4193.003906 2549.128906 4046.210938 C 2567.269531 3991.621094 2583.300781 3937.378906 2597.628906 3883.5 C 2597.949219 3878.820312 2599.839844 3872.328125 2601.789062 3867.691406 C 2653.058594 3670.660156 2682.351562 3477.75 2710.671875 3286.929688 C 2664.519531 3041.191406 2280.421875 2395.949219 2472.53125 2299.890625 C 2524.53125 2273.898438 2572.789062 2431.851562 2583.289062 2452.839844 C 2688.648438 2663.558594 2730.96875 2888.109375 2730.96875 3122.648438 C 2730.96875 3131.300781 2731.121094 3140.03125 2731.339844 3148.828125 "/>
<path fill-rule="evenodd" fill="rgb(28.100586%, 6.199646%, 28.196716%)" fill-opacity="1" d="M 2982.550781 2362.101562 C 2984.628906 2367.519531 2999.5 2361.941406 2999.851562 2361.921875 C 3063.449219 2357.339844 3142.980469 2334.03125 3180.128906 2281.03125 C 3237.980469 2198.511719 3027.078125 2315.28125 3075.191406 2270.351562 C 3116.941406 2231.359375 3137.441406 2086.578125 3073.828125 2180.160156 C 3045.941406 2221.210938 3103.359375 2108.921875 3052.300781 2115.449219 C 2959.378906 2127.320312 2959.890625 2302.980469 2982.550781 2362.101562 "/>
<path fill-rule="evenodd" fill="rgb(28.100586%, 6.199646%, 28.196716%)" fill-opacity="1" d="M 2916.488281 2434.761719 C 2914.878906 2440.140625 2930.621094 2444.761719 2930.921875 2444.949219 C 2986.378906 2479.460938 3066.53125 2509.148438 3129.828125 2490.820312 C 3228.398438 2462.269531 2982.109375 2425.558594 3049.511719 2419.941406 C 3108.03125 2415.070312 3213.921875 2316.601562 3103.789062 2350.160156 C 3055.488281 2364.878906 3171.988281 2313.320312 3125.710938 2287.800781 C 3041.5 2241.371094 2934.039062 2376.011719 2916.488281 2434.761719 "/>
<path fill-rule="evenodd" fill="rgb(28.100586%, 6.199646%, 28.196716%)" fill-opacity="1" d="M 3119.878906 2059.359375 C 3122.328125 2064 3135.078125 2057.371094 3135.390625 2057.308594 C 3192 2046.28125 3260.871094 2016.679688 3288.449219 1965.050781 C 3331.410156 1884.660156 3154.761719 2012.46875 3193.058594 1966.890625 C 3226.300781 1927.328125 3228.941406 1795.101562 3182.019531 1886.058594 C 3161.441406 1925.949219 3200.78125 1818.871094 3155.640625 1830.300781 C 3073.5 1851.078125 3093.089844 2008.75 3119.878906 2059.359375 "/>
<path fill-rule="evenodd" fill="rgb(28.100586%, 6.199646%, 28.196716%)" fill-opacity="1" d="M 3068.46875 2131.800781 C 3067.609375 2136.800781 3082.25 2139.238281 3082.539062 2139.371094 C 3136.089844 2164.320312 3211.289062 2182.25 3266.140625 2158.890625 C 3351.53125 2122.53125 3126.390625 2116.390625 3186.300781 2104 C 3238.308594 2093.261719 3322.660156 1993.308594 3227.429688 2035.441406 C 3185.671875 2053.910156 3284.660156 1994.929688 3240.320312 1977.058594 C 3159.648438 1944.539062 3077.828125 2077.128906 3068.46875 2131.800781 "/>
<path fill-rule="evenodd" fill="rgb(28.100586%, 6.199646%, 28.196716%)" fill-opacity="1" d="M 3215.789062 1815.019531 C 3218.960938 1818.730469 3229.191406 1810.121094 3229.449219 1810 C 3278.621094 1788.449219 3335.140625 1747.539062 3349.671875 1695.039062 C 3372.308594 1613.269531 3237.910156 1765.328125 3263.410156 1716.140625 C 3285.550781 1673.441406 3261.011719 1552.808594 3236.921875 1644.980469 C 3226.359375 1685.390625 3240.269531 1580.140625 3201.601562 1599.710938 C 3131.25 1635.308594 3181.148438 1774.511719 3215.789062 1815.019531 "/>
<path fill-rule="evenodd" fill="rgb(28.100586%, 6.199646%, 28.196716%)" fill-opacity="1" d="M 3183.851562 1891.28125 C 3184.089844 1896 3197.878906 1895.230469 3198.171875 1895.289062 C 3251.890625 1907.039062 3323.839844 1908 3368.890625 1875.621094 C 3439.03125 1825.199219 3233.308594 1865.480469 3285.199219 1842.03125 C 3330.25 1821.679688 3386.5 1713.730469 3308.589844 1771.390625 C 3274.429688 1796.671875 3352.308594 1722.941406 3308.410156 1715.738281 C 3228.519531 1702.640625 3181.21875 1839.730469 3183.851562 1891.28125 "/>
<path fill-rule="evenodd" fill="rgb(28.100586%, 6.199646%, 28.196716%)" fill-opacity="1" d="M 3238.128906 1508.808594 C 3240.980469 1511.96875 3249.660156 1504.238281 3249.890625 1504.140625 C 3292.101562 1484.269531 3340.25 1447.429688 3351.660156 1401.46875 C 3369.429688 1329.921875 3256.199219 1465.128906 3277.21875 1421.808594 C 3295.460938 1384.199219 3271.339844 1279.96875 3252.550781 1360.601562 C 3244.308594 1395.960938 3253.960938 1304.191406 3220.820312 1322.089844 C 3160.519531 1354.648438 3207.101562 1474.421875 3238.128906 1508.808594 "/>
<path fill-rule="evenodd" fill="rgb(28.100586%, 6.199646%, 28.196716%)" fill-opacity="1" d="M 3212.160156 1575.800781 C 3212.480469 1579.890625 3224.441406 1578.910156 3224.691406 1578.960938 C 3271.628906 1587.910156 3334.160156 1587.078125 3372.539062 1557.910156 C 3432.308594 1512.480469 3254.53125 1552.25 3299.058594 1530.671875 C 3337.730469 1511.941406 3384.089844 1416.859375 3317.738281 1468.75 C 3288.648438 1491.511719 3354.601562 1425.660156 3316.289062 1420.421875 C 3246.589844 1410.890625 3208.679688 1531.078125 3212.160156 1575.800781 "/>
<path fill-rule="evenodd" fill="rgb(28.100586%, 6.199646%, 28.196716%)" fill-opacity="1" d="M 3203.25 1192.648438 C 3206.589844 1195.660156 3214.898438 1186.570312 3215.128906 1186.441406 C 3257.429688 1160.921875 3304.128906 1116.859375 3311.140625 1067.21875 C 3322.058594 989.910156 3217.53125 1144.660156 3234.941406 1096.738281 C 3250.058594 1055.140625 3213.300781 947.988281 3202.300781 1034.960938 C 3197.46875 1073.101562 3197.628906 975.390625 3164.679688 997.851562 C 3104.710938 1038.71875 3166.820312 1159.800781 3203.25 1192.648438 "/>
<path fill-rule="evenodd" fill="rgb(28.100586%, 6.199646%, 28.196716%)" fill-opacity="1" d="M 3168.851562 1268.460938 C 3169.628906 1272.738281 3182.121094 1270.390625 3182.390625 1270.421875 C 3232.808594 1274.738281 3298.578125 1267.050781 3335.828125 1232.140625 C 3393.839844 1177.78125 3210.910156 1239.03125 3255.46875 1211.460938 C 3294.148438 1187.519531 3332.628906 1082.308594 3268.398438 1144.210938 C 3240.230469 1171.351562 3302.53125 1094.789062 3261.609375 1093.449219 C 3187.148438 1091.011719 3160.308594 1221.730469 3168.851562 1268.460938 "/>
<path fill-rule="evenodd" fill="rgb(28.100586%, 6.199646%, 28.196716%)" fill-opacity="1" d="M 3202.960938 1006.261719 C 3198.941406 1007.75 3194.929688 996.890625 3194.78125 996.691406 C 3166.871094 959.628906 3141.789062 904.730469 3153.550781 858.628906 C 3171.871094 786.851562 3207.75 959.121094 3209.761719 910.941406 C 3211.519531 869.121094 3282.441406 787.570312 3260.710938 867.878906 C 3251.179688 903.101562 3286.300781 817.089844 3307.121094 848.238281 C 3344.980469 904.921875 3246.78125 989.960938 3202.960938 1006.261719 "/>
<path fill-rule="evenodd" fill="rgb(28.100586%, 6.199646%, 28.196716%)" fill-opacity="1" d="M 3182.28125 1059.570312 C 3180.050781 1063.070312 3169.941406 1056.691406 3169.691406 1056.621094 C 3123.890625 1042.988281 3068.949219 1013.5 3048.859375 969.910156 C 3017.570312 902.039062 3155.988281 1019.148438 3126.839844 979.488281 C 3101.539062 945.070312 3105.75 839.21875 3139.769531 915.859375 C 3154.691406 949.46875 3127.660156 860.601562 3164.050781 873.558594 C 3230.269531 897.148438 3206.640625 1021.421875 3182.28125 1059.570312 "/>
<path fill-rule="evenodd" fill="rgb(28.100586%, 6.199646%, 28.196716%)" fill-opacity="1" d="M 2866.5 2714.640625 C 2860.691406 2715.371094 2860.5 2698.800781 2860.398438 2698.46875 C 2841.589844 2637.101562 2834.488281 2551.71875 2870.429688 2491.179688 C 2926.398438 2396.890625 2894.011719 2650.261719 2918.449219 2583.488281 C 2939.671875 2525.53125 3067.230469 2435.410156 3003.039062 2540.480469 C 2974.890625 2586.558594 3058.761719 2478.058594 3071.191406 2528.738281 C 3093.808594 2620.941406 2929.839844 2706.691406 2866.5 2714.640625 "/>
<path fill-rule="evenodd" fill="rgb(28.100586%, 6.199646%, 28.196716%)" fill-opacity="1" d="M 2822.710938 2811.71875 C 2818.269531 2815.851562 2808.261719 2803.488281 2807.96875 2803.300781 C 2755.679688 2768.691406 2698.929688 2708.75 2693.070312 2640.910156 C 2683.929688 2535.261719 2807.488281 2746.199219 2788.28125 2680.78125 C 2771.601562 2623.988281 2825.019531 2477.21875 2833.660156 2596.078125 C 2837.449219 2648.199219 2843.28125 2514.601562 2883.859375 2545.089844 C 2957.691406 2600.578125 2871.128906 2766.558594 2822.710938 2811.71875 "/>
<path fill-rule="evenodd" fill="rgb(45.800781%, 16.088867%, 45.996094%)" fill-opacity="1" d="M 3171.539062 1069.089844 C 3167.941406 1072.371094 3159.148438 1061.910156 3158.910156 1061.75 C 3113.949219 1031.78125 3064.46875 980.828125 3057.460938 924.800781 C 3046.558594 837.550781 3156.75 1014.710938 3138.621094 960.308594 C 3122.871094 913.078125 3163.21875 793.71875 3174.121094 891.828125 C 3178.898438 934.859375 3179.699219 825 3214.699219 851.25 C 3278.390625 899.019531 3210.800781 1033.269531 3171.539062 1069.089844 "/>
<path fill-rule="evenodd" fill="rgb(45.800781%, 16.088867%, 45.996094%)" fill-opacity="1" d="M 3210.941406 1295.601562 C 3207.339844 1298.878906 3198.550781 1288.421875 3198.308594 1288.261719 C 3153.351562 1258.289062 3103.871094 1207.339844 3096.871094 1151.308594 C 3085.960938 1064.070312 3196.160156 1241.230469 3178.019531 1186.820312 C 3162.28125 1139.589844 3202.621094 1020.230469 3213.53125 1118.339844 C 3218.308594 1161.371094 3219.101562 1051.511719 3254.101562 1077.761719 C 3317.789062 1125.53125 3250.199219 1259.78125 3210.941406 1295.601562 "/>
<path fill-rule="evenodd" fill="rgb(45.800781%, 16.088867%, 45.996094%)" fill-opacity="1" d="M 3236.890625 1572.601562 C 3232.789062 1575.230469 3225.871094 1563.449219 3225.660156 1563.25 C 3186.328125 1526.210938 3146.039062 1467.71875 3148.46875 1411.308594 C 3152.269531 1323.460938 3231.378906 1516.519531 3222.570312 1459.851562 C 3214.921875 1410.648438 3274.609375 1299.691406 3269 1398.25 C 3266.539062 1441.46875 3285.640625 1333.289062 3315.769531 1365.011719 C 3370.601562 1422.71875 3281.578125 1543.820312 3236.890625 1572.601562 "/>
<path fill-rule="evenodd" fill="rgb(45.800781%, 16.088867%, 45.996094%)" fill-opacity="1" d="M 2932.921875 2400.980469 C 2928.238281 2402.328125 2924.988281 2389.058594 2924.851562 2388.808594 C 2897.808594 2342.03125 2876 2274.441406 2894.53125 2221.101562 C 2923.378906 2138.039062 2943.738281 2345.679688 2951.570312 2288.871094 C 2958.371094 2239.550781 3047.398438 2150.390625 3013.730469 2243.191406 C 2998.960938 2283.890625 3048.320312 2185.738281 3068.078125 2224.78125 C 3104.03125 2295.800781 2983.988281 2386.25 2932.921875 2400.980469 "/>
<path fill-rule="evenodd" fill="rgb(45.800781%, 16.088867%, 45.996094%)" fill-opacity="1" d="M 2831.011719 2738.660156 C 2826.421875 2740.269531 2822.441406 2727.199219 2822.28125 2726.949219 C 2792.679688 2681.738281 2767.160156 2615.460938 2782.699219 2561.179688 C 2806.898438 2476.648438 2838.75 2682.839844 2843.421875 2625.679688 C 2847.46875 2576.058594 2931.410156 2482.109375 2902.941406 2576.628906 C 2890.460938 2618.078125 2934.289062 2517.351562 2956.191406 2555.230469 C 2996.03125 2624.148438 2881.179688 2721.109375 2831.011719 2738.660156 "/>
<path fill-rule="evenodd" fill="rgb(45.800781%, 16.088867%, 45.996094%)" fill-opacity="1" d="M 3185.289062 1828.660156 C 3180.699219 1830.28125 3176.671875 1817.21875 3176.511719 1816.980469 C 3146.769531 1771.871094 3121.03125 1705.671875 3136.398438 1651.339844 C 3160.320312 1566.730469 3192.839844 1772.820312 3197.320312 1715.640625 C 3201.210938 1666.011719 3284.851562 1571.78125 3256.691406 1666.390625 C 3244.339844 1707.890625 3287.851562 1607.011719 3309.859375 1644.820312 C 3349.929688 1713.609375 3235.398438 1810.949219 3185.289062 1828.660156 "/>
<path fill-rule="evenodd" fill="rgb(45.800781%, 16.088867%, 45.996094%)" fill-opacity="1" d="M 3098.011719 2092.679688 C 3093.378906 2094.191406 3089.679688 2081.039062 3089.53125 2080.789062 C 3060.910156 2034.960938 3036.800781 1968.148438 3053.5 1914.210938 C 3079.5 1830.21875 3106.941406 2037.039062 3112.828125 1979.988281 C 3117.941406 1930.46875 3203.871094 1838.328125 3173.390625 1932.21875 C 3160.019531 1973.398438 3205.988281 1873.628906 3227.078125 1911.960938 C 3265.429688 1981.71875 3148.539062 2076.210938 3098.011719 2092.679688 "/>
<path fill-rule="evenodd" fill="rgb(74.21875%, 41.601562%, 74.414062%)" fill-opacity="1" d="M 2896.238281 2443.488281 C 2900.328125 2446.128906 2907.261719 2434.359375 2907.46875 2434.160156 C 2946.828125 2397.128906 2987.160156 2338.671875 2984.761719 2282.261719 C 2981.019531 2194.410156 2901.78125 2387.421875 2910.628906 2330.75 C 2918.308594 2281.558594 2858.699219 2170.558594 2864.238281 2269.128906 C 2866.679688 2312.351562 2847.640625 2204.148438 2817.488281 2235.851562 C 2762.621094 2293.53125 2851.570312 2414.691406 2896.238281 2443.488281 "/>
<path fill-rule="evenodd" fill="rgb(74.21875%, 41.601562%, 74.414062%)" fill-opacity="1" d="M 2889.621094 2528.890625 C 2891.28125 2533.46875 2903.921875 2528.289062 2904.210938 2528.25 C 2957.941406 2522.578125 3025.421875 2500.429688 3057.640625 2454.058594 C 3107.808594 2381.851562 2927.949219 2487.601562 2969.28125 2447.828125 C 3005.148438 2413.308594 3024.828125 2288.859375 2969.621094 2370.699219 C 2945.410156 2406.578125 2995.710938 2308.921875 2952.519531 2315.921875 C 2873.941406 2328.648438 2871.46875 2478.941406 2889.621094 2528.890625 "/>
<path fill-rule="evenodd" fill="rgb(74.21875%, 41.601562%, 74.414062%)" fill-opacity="1" d="M 3034.339844 2117 C 3037.929688 2119.320312 3044.011719 2108.988281 3044.191406 2108.808594 C 3078.710938 2076.339844 3114.078125 2025.070312 3111.980469 1975.589844 C 3108.699219 1898.550781 3039.199219 2067.820312 3046.960938 2018.121094 C 3053.699219 1974.980469 3001.410156 1877.628906 3006.28125 1964.070312 C 3008.410156 2001.980469 2991.71875 1907.089844 2965.269531 1934.890625 C 2917.148438 1985.480469 2995.160156 2091.738281 3034.339844 2117 "/>
<path fill-rule="evenodd" fill="rgb(74.21875%, 41.601562%, 74.414062%)" fill-opacity="1" d="M 3028.53125 2191.910156 C 3029.988281 2195.921875 3041.078125 2191.371094 3041.328125 2191.351562 C 3088.460938 2186.371094 3147.640625 2166.941406 3175.898438 2126.269531 C 3219.898438 2062.941406 3062.160156 2155.691406 3098.398438 2120.800781 C 3129.859375 2090.53125 3147.128906 1981.378906 3098.699219 2053.160156 C 3077.46875 2084.628906 3121.589844 1998.96875 3083.710938 2005.109375 C 3014.789062 2016.28125 3012.621094 2148.089844 3028.53125 2191.910156 "/>
<path fill-rule="evenodd" fill="rgb(74.21875%, 41.601562%, 74.414062%)" fill-opacity="1" d="M 3155.46875 1830.648438 C 3158.609375 1832.679688 3163.941406 1823.621094 3164.109375 1823.46875 C 3194.378906 1794.988281 3225.410156 1750.019531 3223.558594 1706.621094 C 3220.691406 1639.050781 3159.730469 1787.519531 3166.539062 1743.929688 C 3172.441406 1706.089844 3126.589844 1620.699219 3130.851562 1696.519531 C 3132.730469 1729.769531 3118.089844 1646.539062 3094.890625 1670.929688 C 3052.679688 1715.289062 3121.101562 1808.5 3155.46875 1830.648438 "/>
<path fill-rule="evenodd" fill="rgb(74.21875%, 41.601562%, 74.414062%)" fill-opacity="1" d="M 3150.371094 1896.351562 C 3151.648438 1899.871094 3161.371094 1895.878906 3161.601562 1895.851562 C 3202.929688 1891.488281 3254.839844 1874.449219 3279.621094 1838.78125 C 3318.210938 1783.230469 3179.859375 1864.578125 3211.648438 1833.988281 C 3239.25 1807.429688 3254.390625 1711.699219 3211.921875 1774.648438 C 3193.289062 1802.261719 3231.988281 1727.128906 3198.761719 1732.519531 C 3138.308594 1742.308594 3136.421875 1857.921875 3150.371094 1896.351562 "/>
<path fill-rule="evenodd" fill="rgb(74.21875%, 41.601562%, 74.414062%)" fill-opacity="1" d="M 3222.839844 1587.480469 C 3225.601562 1589.261719 3230.28125 1581.308594 3230.421875 1581.179688 C 3256.96875 1556.199219 3284.179688 1516.761719 3282.558594 1478.699219 C 3280.039062 1419.429688 3226.578125 1549.640625 3232.550781 1511.410156 C 3237.730469 1478.230469 3197.511719 1403.339844 3201.261719 1469.839844 C 3202.898438 1499 3190.058594 1426 3169.710938 1447.390625 C 3132.691406 1486.300781 3192.699219 1568.039062 3222.839844 1587.480469 "/>
<path fill-rule="evenodd" fill="rgb(74.21875%, 41.601562%, 74.414062%)" fill-opacity="1" d="M 3218.371094 1645.089844 C 3219.5 1648.179688 3228.019531 1644.679688 3228.21875 1644.660156 C 3264.46875 1640.839844 3310 1625.890625 3331.738281 1594.609375 C 3365.578125 1545.890625 3244.238281 1617.230469 3272.121094 1590.398438 C 3296.320312 1567.109375 3309.601562 1483.148438 3272.351562 1538.359375 C 3256.019531 1562.570312 3289.960938 1496.679688 3260.820312 1501.398438 C 3207.800781 1510 3206.128906 1611.390625 3218.371094 1645.089844 "/>
<path fill-rule="evenodd" fill="rgb(74.21875%, 41.601562%, 74.414062%)" fill-opacity="1" d="M 3213.148438 1321.289062 C 3215.578125 1322.851562 3219.679688 1315.878906 3219.800781 1315.761719 C 3243.089844 1293.851562 3266.960938 1259.261719 3265.539062 1225.878906 C 3263.320312 1173.898438 3216.441406 1288.101562 3221.671875 1254.570312 C 3226.210938 1225.46875 3190.941406 1159.78125 3194.21875 1218.109375 C 3195.660156 1243.679688 3184.398438 1179.660156 3166.558594 1198.421875 C 3134.089844 1232.550781 3186.71875 1304.238281 3213.148438 1321.289062 "/>
<path fill-rule="evenodd" fill="rgb(74.21875%, 41.601562%, 74.414062%)" fill-opacity="1" d="M 3200.609375 1375.171875 C 3201.601562 1377.878906 3209.078125 1374.808594 3209.25 1374.789062 C 3241.050781 1371.441406 3280.980469 1358.328125 3300.039062 1330.890625 C 3329.730469 1288.160156 3223.300781 1350.730469 3247.75 1327.199219 C 3268.980469 1306.769531 3280.628906 1233.128906 3247.960938 1281.558594 C 3233.628906 1302.789062 3263.390625 1245 3237.839844 1249.140625 C 3191.339844 1256.679688 3189.878906 1345.609375 3200.609375 1375.171875 "/>
<path fill-rule="evenodd" fill="rgb(74.21875%, 41.601562%, 74.414062%)" fill-opacity="1" d="M 3188.148438 1049.941406 C 3185.339844 1051.199219 3182.140625 1043.191406 3182.03125 1043.050781 C 3161.011719 1016.199219 3141.441406 975.878906 3148.320312 940.921875 C 3159.03125 886.480469 3190.039062 1014.441406 3189.929688 978.238281 C 3189.828125 946.828125 3237.609375 883.28125 3224.75 944.230469 C 3219.101562 970.960938 3241.300781 905.28125 3257.089844 927.941406 C 3285.808594 969.148438 3218.761719 1036.238281 3188.148438 1049.941406 "/>
<path fill-rule="evenodd" fill="rgb(74.21875%, 41.601562%, 74.414062%)" fill-opacity="1" d="M 3175.171875 1090.621094 C 3173.691406 1093.308594 3166.300781 1088.871094 3166.121094 1088.828125 C 3133.140625 1080.160156 3093.171875 1059.898438 3077.5 1027.898438 C 3053.089844 978.070312 3155.191406 1061.199219 3133.210938 1032.441406 C 3114.128906 1007.488281 3113.730469 927.980469 3140.359375 984.300781 C 3152.03125 1009 3129.980469 943.269531 3156.25 951.761719 C 3204.058594 967.210938 3191.25 1061.191406 3175.171875 1090.621094 "/>
<path fill-rule="evenodd" fill="rgb(74.21875%, 41.601562%, 74.414062%)" fill-opacity="1" d="M 2849.941406 2756.398438 C 2845.570312 2757.148438 2843.96875 2744.820312 2843.871094 2744.570312 C 2824.128906 2699.539062 2811.21875 2636.210938 2833.351562 2589.839844 C 2867.820312 2517.628906 2865.308594 2707.46875 2878.109375 2656.878906 C 2889.230469 2612.960938 2978.730469 2541.300781 2938.929688 2621.839844 C 2921.46875 2657.160156 2976 2573.359375 2989.941406 2610.660156 C 3015.300781 2678.519531 2897.609375 2748.21875 2849.941406 2756.398438 "/>
<path fill-rule="evenodd" fill="rgb(74.21875%, 41.601562%, 74.414062%)" fill-opacity="1" d="M 2825.019531 2830.25 C 2821.988281 2833.488281 2813.261719 2824.640625 2813.03125 2824.511719 C 2770.070312 2800.589844 2721.480469 2757.980469 2711.050781 2707.660156 C 2694.808594 2629.320312 2807.660156 2782 2787.25 2733.96875 C 2769.53125 2692.269531 2797.449219 2581.070312 2814.480469 2669.269531 C 2821.941406 2707.960938 2814.671875 2608.25 2848.328125 2629.519531 C 2909.578125 2668.210938 2858.03125 2794.898438 2825.019531 2830.25 "/>
<path fill-rule="evenodd" fill="rgb(6.591797%, 62.889099%, 26.609802%)" fill-opacity="1" d="M 2378.191406 4555.617188 C 2410.988281 4362.410156 2420.089844 4182.035156 2414.039062 4010.320312 C 2387.078125 3245.671875 2056.828125 2654.628906 2197 1863.761719 C 2212.589844 1775.839844 2252.5 1623.910156 2195.378906 1376.640625 C 2155.679688 1204.800781 2068.96875 986.640625 1893.808594 711.621094 L 1890.070312 705.691406 L 1878.199219 713.179688 L 1881.941406 719.121094 C 2053.378906 993.328125 2137.78125 1210.328125 2175.730469 1381.101562 C 2229.789062 1624.371094 2189.191406 1773.230469 2173.160156 1859.429688 C 2026.109375 2650.511719 2351.058594 3245.429688 2371.648438 4011.640625 C 2376.191406 4180.542969 2365.78125 4357.847656 2331.929688 4547.566406 L 2327.910156 4570.691406 L 2374.160156 4578.746094 L 2378.191406 4555.617188 "/>
<path fill-rule="evenodd" fill="rgb(6.591797%, 62.889099%, 26.609802%)" fill-opacity="1" d="M 2273.089844 3176.011719 C 2265.160156 3180.96875 2267.941406 3158.011719 2265.648438 3148.941406 C 2252.761719 3097.800781 2228.871094 3047.140625 2210.949219 2997.53125 C 2124.058594 2757.070312 1997.488281 2542.519531 1811.398438 2365.5 C 1792.859375 2347.871094 1684.859375 2203.808594 1641.191406 2249.71875 C 1469.640625 2430.058594 2195.441406 3005.359375 2270.929688 3214.28125 C 2278.109375 3234.160156 2257.660156 3161.328125 2273.089844 3176.011719 "/>
<path fill-rule="evenodd" fill="rgb(6.591797%, 62.889099%, 26.609802%)" fill-opacity="1" d="M 2358.199219 3804.691406 C 2303.160156 3502.96875 2498.851562 2929.988281 2688.289062 2697.46875 C 2703.800781 2678.441406 2783.328125 2628.140625 2800.351562 2669.210938 C 2809.050781 2690.210938 2815.679688 2715 2812.980469 2738.011719 C 2767.738281 3123.191406 2590.121094 3523 2363.75 3829.558594 C 2352.308594 3845.050781 2352.621094 3789.238281 2358.199219 3804.691406 "/>
<path fill-rule="evenodd" fill="rgb(28.100586%, 6.199646%, 28.196716%)" fill-opacity="1" d="M 2187.140625 2124.558594 C 2191.269531 2129.351562 2204.460938 2118.121094 2204.800781 2117.960938 C 2268.320312 2089.710938 2341.21875 2036.351562 2359.679688 1968.25 C 2388.421875 1862.210938 2215.449219 2060.058594 2248.121094 1996.179688 C 2276.488281 1940.730469 2243.871094 1784.691406 2213.320312 1904.210938 C 2199.929688 1956.621094 2217.210938 1820.21875 2167.269531 1845.828125 C 2076.410156 1892.441406 2142 2072.339844 2187.140625 2124.558594 "/>
<path fill-rule="evenodd" fill="rgb(28.100586%, 6.199646%, 28.196716%)" fill-opacity="1" d="M 2146.320312 2223.53125 C 2146.671875 2229.640625 2164.511719 2228.550781 2164.890625 2228.628906 C 2234.539062 2243.460938 2327.710938 2244.210938 2385.820312 2201.96875 C 2476.308594 2136.191406 2210.191406 2189.78125 2277.21875 2159.058594 C 2335.410156 2132.378906 2407.488281 1992.199219 2307.011719 2067.410156 C 2262.949219 2100.390625 2363.289062 2004.371094 2306.390625 1995.351562 C 2202.851562 1978.941406 2142.550781 2156.789062 2146.320312 2223.53125 "/>
<path fill-rule="evenodd" fill="rgb(28.100586%, 6.199646%, 28.196716%)" fill-opacity="1" d="M 2215.78125 1763.300781 C 2220.011719 1767.140625 2230.628906 1755.621094 2230.921875 1755.449219 C 2284.871094 1723.171875 2344.519531 1667.308594 2353.679688 1604.148438 C 2367.929688 1505.808594 2234.171875 1702.300781 2256.550781 1641.378906 C 2275.980469 1588.5 2229.699219 1451.949219 2215.289062 1562.589844 C 2208.96875 1611.109375 2209.628906 1486.761719 2167.578125 1515.199219 C 2091.070312 1566.929688 2169.558594 1721.328125 2215.78125 1763.300781 "/>
<path fill-rule="evenodd" fill="rgb(28.100586%, 6.199646%, 28.196716%)" fill-opacity="1" d="M 2189.910156 1856.609375 C 2190.890625 1862.058594 2206.789062 1859.128906 2207.140625 1859.160156 C 2271.289062 1864.898438 2355.03125 1855.421875 2402.609375 1811.160156 C 2476.691406 1742.238281 2243.578125 1819.351562 2300.421875 1784.460938 C 2349.761719 1754.171875 2399.21875 1620.449219 2317.191406 1698.921875 C 2281.210938 1733.339844 2360.851562 1636.191406 2308.78125 1634.289062 C 2214.019531 1630.839844 2179.25 1797.089844 2189.910156 1856.609375 "/>
<path fill-rule="evenodd" fill="rgb(28.100586%, 6.199646%, 28.196716%)" fill-opacity="1" d="M 2223.589844 1477.25 C 2228.21875 1479.878906 2235.519531 1467.261719 2235.75 1467.039062 C 2278.171875 1426.730469 2320.960938 1363.859375 2316.410156 1304.640625 C 2309.328125 1212.421875 2227.871094 1418.109375 2235.789062 1358.230469 C 2242.671875 1306.25 2172.820312 1191.660156 2182.269531 1295.078125 C 2186.410156 1340.429688 2161.679688 1227.359375 2129.289062 1261.75 C 2070.339844 1324.320312 2173.078125 1448.550781 2223.589844 1477.25 "/>
<path fill-rule="evenodd" fill="rgb(28.100586%, 6.199646%, 28.196716%)" fill-opacity="1" d="M 2219.101562 1567.261719 C 2221.101562 1572.011719 2234.949219 1566.121094 2235.269531 1566.078125 C 2294.699219 1558.21875 2368.820312 1532.550781 2403.011719 1482.671875 C 2456.261719 1404.988281 2260.261719 1522.5 2304.769531 1479.230469 C 2343.421875 1441.679688 2361.089844 1310.160156 2302.578125 1398.140625 C 2276.921875 1436.71875 2329.460938 1332.269531 2281.78125 1341.148438 C 2195.019531 1357.308594 2197.308594 1515.390625 2219.101562 1567.261719 "/>
<path fill-rule="evenodd" fill="rgb(28.100586%, 6.199646%, 28.196716%)" fill-opacity="1" d="M 2133.070312 1155.03125 C 2137.148438 1157.210938 2143.191406 1146.070312 2143.390625 1145.871094 C 2179.308594 1109.871094 2215.03125 1054.261719 2209.699219 1002.921875 C 2201.410156 922.96875 2135.410156 1103.550781 2140.898438 1051.339844 C 2145.671875 1006.03125 2082.339844 908.101562 2092.941406 997.730469 C 2097.589844 1037.03125 2073.488281 939.371094 2046.140625 970 C 1996.390625 1025.71875 2088.511719 1131.261719 2133.070312 1155.03125 "/>
<path fill-rule="evenodd" fill="rgb(28.100586%, 6.199646%, 28.196716%)" fill-opacity="1" d="M 2131.25 1233.328125 C 2133.101562 1237.410156 2145 1231.96875 2145.269531 1231.921875 C 2196.71875 1223.71875 2260.511719 1199.699219 2289.058594 1155.570312 C 2333.511719 1086.851562 2165.96875 1193.480469 2203.640625 1154.859375 C 2236.339844 1121.339844 2248.640625 1006.679688 2199.851562 1084.46875 C 2178.449219 1118.578125 2221.671875 1026.621094 2180.460938 1035.441406 C 2105.460938 1051.5 2111.109375 1188.761719 2131.25 1233.328125 "/>
<path fill-rule="evenodd" fill="rgb(28.100586%, 6.199646%, 28.196716%)" fill-opacity="1" d="M 1980.179688 843.789062 C 1984.710938 845.640625 1989.871094 833.25 1990.050781 833.03125 C 2023.96875 791.191406 2055.53125 728.71875 2044.328125 675.21875 C 2026.890625 591.921875 1977.039062 789.308594 1977.140625 733.71875 C 1977.21875 685.46875 1899.851562 589.230469 1920.78125 682.46875 C 1929.960938 723.359375 1893.929688 623.128906 1868.460938 658.371094 C 1822.128906 722.480469 1930.660156 823.609375 1980.179688 843.789062 "/>
<path fill-rule="evenodd" fill="rgb(28.100586%, 6.199646%, 28.196716%)" fill-opacity="1" d="M 1972.988281 934.261719 C 1975.378906 938.359375 1987.308594 931.328125 1987.601562 931.261719 C 2040.890625 917.011719 2105.480469 884.769531 2130.738281 835.171875 C 2170.078125 757.949219 2005.210938 888.519531 2040.679688 843.730469 C 2071.480469 804.859375 2071.949219 682.75 2029.03125 769.988281 C 2010.199219 808.261719 2045.710938 706.691406 2003.261719 720.46875 C 1926.019531 745.550781 1946.921875 889.519531 1972.988281 934.261719 "/>
<path fill-rule="evenodd" fill="rgb(28.100586%, 6.199646%, 28.196716%)" fill-opacity="1" d="M 1910.828125 652.808594 C 1907.261719 655.820312 1899.128906 646.179688 1898.898438 646.03125 C 1856.550781 618.359375 1810.5 571.371094 1805.480469 519.75 C 1797.671875 439.371094 1898.28125 602.699219 1882.5 552.558594 C 1868.800781 509.03125 1911.300781 399.140625 1918.78125 489.53125 C 1922.050781 529.171875 1926.199219 427.980469 1959.078125 452.210938 C 2018.898438 496.289062 1949.71875 619.859375 1910.828125 652.808594 "/>
<path fill-rule="evenodd" fill="rgb(28.100586%, 6.199646%, 28.196716%)" fill-opacity="1" d="M 1909.378906 715.121094 C 1908.390625 719.539062 1895.648438 716.738281 1895.371094 716.761719 C 1843.371094 719.761719 1776.109375 709.871094 1739.371094 672.628906 C 1682.148438 614.628906 1867.449219 683.421875 1822.871094 653.558594 C 1784.171875 627.640625 1749.28125 517.558594 1812.550781 583.53125 C 1840.300781 612.46875 1779.660156 531.359375 1821.78125 531.171875 C 1898.410156 530.820312 1920.21875 666.980469 1909.378906 715.121094 "/>
<path fill-rule="evenodd" fill="rgb(28.100586%, 6.199646%, 28.196716%)" fill-opacity="1" d="M 2198.75 2529 C 2193.070312 2531.898438 2186.738281 2514.988281 2186.511719 2514.679688 C 2144.488281 2458.730469 2105.578125 2373.828125 2120 2298.429688 C 2142.449219 2181.03125 2203.109375 2452.800781 2203.429688 2375.289062 C 2203.71875 2308.011719 2301.121094 2168.359375 2274.230469 2299.859375 C 2262.429688 2357.53125 2308.230469 2215.21875 2339.75 2262.570312 C 2397.101562 2348.71875 2260.75 2497.378906 2198.75 2529 "/>
<path fill-rule="evenodd" fill="rgb(28.100586%, 6.199646%, 28.196716%)" fill-opacity="1" d="M 2189.820312 2644.75 C 2186.800781 2650.640625 2171.949219 2641.671875 2171.589844 2641.589844 C 2105.160156 2625.460938 2024.769531 2585.039062 1993.621094 2517.648438 C 1945.121094 2412.730469 2149.949219 2583.21875 2106.011719 2523.261719 C 2067.871094 2471.21875 2068.269531 2300.949219 2121.171875 2419.609375 C 2144.359375 2471.640625 2100.839844 2332.5 2153.738281 2348.738281 C 2250 2378.28125 2222.730469 2580.519531 2189.820312 2644.75 "/>
<path fill-rule="evenodd" fill="rgb(45.800781%, 16.088867%, 45.996094%)" fill-opacity="1" d="M 1901.890625 728.859375 C 1899.410156 733.558594 1886.53125 726.089844 1886.21875 726.019531 C 1829.019531 711.941406 1759.410156 678.039062 1731.480469 623.191406 C 1687.96875 537.78125 1866.589844 678.589844 1827.839844 629.519531 C 1794.199219 586.929688 1791.351562 449.609375 1838.871094 546.171875 C 1859.710938 588.511719 1819.828125 475.578125 1865.441406 489.53125 C 1948.429688 514.910156 1928.871094 677.589844 1901.890625 728.859375 "/>
<path fill-rule="evenodd" fill="rgb(45.800781%, 16.088867%, 45.996094%)" fill-opacity="1" d="M 2026.199219 946.5 C 2023.730469 951.199219 2010.839844 943.730469 2010.53125 943.660156 C 1953.328125 929.578125 1883.730469 895.679688 1855.789062 840.828125 C 1812.289062 755.410156 1990.898438 896.230469 1952.148438 847.160156 C 1918.511719 804.570312 1915.660156 667.25 1963.179688 763.808594 C 1984.03125 806.148438 1944.140625 693.21875 1989.761719 707.171875 C 2072.75 732.550781 2053.179688 895.230469 2026.199219 946.5 "/>
<path fill-rule="evenodd" fill="rgb(45.800781%, 16.088867%, 45.996094%)" fill-opacity="1" d="M 2155.421875 1220.890625 C 2152.199219 1225.109375 2140.738281 1215.589844 2140.449219 1215.460938 C 2086.398438 1192.050781 2023.421875 1147.011719 2005.019531 1088.269531 C 1976.371094 996.800781 2129 1165.429688 2098.96875 1110.589844 C 2072.910156 1062.988281 2093 927.109375 2123.75 1030.238281 C 2137.238281 1075.460938 2116.75 957.46875 2159.398438 978.828125 C 2236.988281 1017.691406 2190.578125 1174.828125 2155.421875 1220.890625 "/>
<path fill-rule="evenodd" fill="rgb(45.800781%, 16.088867%, 45.996094%)" fill-opacity="1" d="M 2150.660156 2182.808594 C 2146.359375 2185.929688 2138.109375 2173.519531 2137.871094 2173.320312 C 2092.808594 2135.371094 2045.421875 2074.148438 2044.648438 2012.601562 C 2043.46875 1916.761719 2141.269531 2122.101562 2128.25 2060.949219 C 2116.941406 2007.871094 2175.191406 1883.480469 2175.050781 1991.101562 C 2174.988281 2038.289062 2189.230469 1919.378906 2223.949219 1952.078125 C 2287.128906 2011.578125 2197.550781 2148.789062 2150.660156 2182.808594 "/>
<path fill-rule="evenodd" fill="rgb(45.800781%, 16.088867%, 45.996094%)" fill-opacity="1" d="M 2171.269531 2566.769531 C 2167.148438 2570.121094 2158.230469 2558.199219 2157.96875 2558.011719 C 2110.890625 2522.621094 2060.160156 2464.121094 2055.988281 2402.710938 C 2049.488281 2307.078125 2158.53125 2506.679688 2142.128906 2446.339844 C 2127.898438 2393.96875 2179.160156 2266.539062 2184.988281 2374 C 2187.550781 2421.128906 2195.171875 2301.609375 2231.648438 2332.328125 C 2298.03125 2388.238281 2216.210938 2530.199219 2171.269531 2566.769531 "/>
<path fill-rule="evenodd" fill="rgb(45.800781%, 16.088867%, 45.996094%)" fill-opacity="1" d="M 2197.378906 1502.53125 C 2193.269531 1505.890625 2184.308594 1494 2184.050781 1493.808594 C 2136.851562 1458.570312 2085.941406 1400.238281 2081.558594 1338.839844 C 2074.75 1243.230469 2184.441406 1442.480469 2167.851562 1382.199219 C 2153.449219 1329.871094 2204.289062 1202.28125 2210.46875 1309.71875 C 2213.179688 1356.828125 2220.410156 1237.289062 2257 1267.890625 C 2323.558594 1323.589844 2242.199219 1465.808594 2197.378906 1502.53125 "/>
<path fill-rule="evenodd" fill="rgb(45.800781%, 16.088867%, 45.996094%)" fill-opacity="1" d="M 2205.699219 1805.558594 C 2201.519531 1808.820312 2192.851562 1796.710938 2192.601562 1796.511719 C 2146.28125 1760.121094 2096.820312 1700.558594 2093.949219 1639.070312 C 2089.5 1543.320312 2194.25 1745.210938 2179.148438 1684.539062 C 2166.039062 1631.871094 2220.011719 1505.570312 2223.539062 1613.121094 C 2225.089844 1660.289062 2235.261719 1540.96875 2271.078125 1572.460938 C 2336.25 1629.769531 2251.410156 1769.960938 2205.699219 1805.558594 "/>
<path fill-rule="evenodd" fill="rgb(74.21875%, 41.601562%, 74.414062%)" fill-opacity="1" d="M 2128.789062 2239.988281 C 2133.96875 2241.179688 2136.710938 2226.539062 2136.851562 2226.25 C 2163.488281 2173.710938 2183.179688 2098.828125 2159.820312 2041.878906 C 2123.449219 1953.199219 2113.699219 2180.441406 2101.78125 2119.058594 C 2091.429688 2065.789062 1989.191406 1974.070312 2031.390625 2073.058594 C 2049.898438 2116.480469 1990.308594 2012.601562 1971.128906 2056.269531 C 1936.25 2135.730469 2072.328125 2227 2128.789062 2239.988281 "/>
<path fill-rule="evenodd" fill="rgb(74.21875%, 41.601562%, 74.414062%)" fill-opacity="1" d="M 2153.640625 2330 C 2157.039062 2334.070312 2168.078125 2324.070312 2168.371094 2323.941406 C 2221.359375 2298.210938 2282.339844 2250.5 2298.191406 2191.03125 C 2322.871094 2098.410156 2177.648438 2273.449219 2205.289062 2217.371094 C 2229.28125 2168.691406 2203.351562 2033.800781 2177.070312 2138.160156 C 2165.539062 2183.929688 2180.929688 2065.160156 2139.238281 2088.328125 C 2063.390625 2130.5 2116.53125 2285.5 2153.640625 2330 "/>
<path fill-rule="evenodd" fill="rgb(74.21875%, 41.601562%, 74.414062%)" fill-opacity="1" d="M 2149.441406 1854.078125 C 2153.96875 1855.128906 2156.378906 1842.289062 2156.5 1842.039062 C 2179.859375 1795.960938 2197.140625 1730.289062 2176.648438 1680.339844 C 2144.75 1602.558594 2136.199219 1801.859375 2125.75 1748.03125 C 2116.671875 1701.300781 2027 1620.859375 2064.011719 1707.679688 C 2080.238281 1745.761719 2027.96875 1654.648438 2011.160156 1692.949219 C 1980.558594 1762.648438 2099.910156 1842.699219 2149.441406 1854.078125 "/>
<path fill-rule="evenodd" fill="rgb(74.21875%, 41.601562%, 74.414062%)" fill-opacity="1" d="M 2171.230469 1933.03125 C 2174.210938 1936.609375 2183.890625 1927.839844 2184.140625 1927.710938 C 2230.621094 1905.148438 2284.101562 1863.308594 2298.011719 1811.140625 C 2319.660156 1729.910156 2192.289062 1883.441406 2216.519531 1834.25 C 2237.558594 1791.550781 2214.828125 1673.25 2191.769531 1764.78125 C 2181.660156 1804.921875 2195.160156 1700.75 2158.601562 1721.078125 C 2092.070312 1758.058594 2138.679688 1894 2171.230469 1933.03125 "/>
<path fill-rule="evenodd" fill="rgb(74.21875%, 41.601562%, 74.414062%)" fill-opacity="1" d="M 2167.539062 1515.621094 C 2171.519531 1516.539062 2173.628906 1505.28125 2173.738281 1505.058594 C 2194.230469 1464.640625 2209.378906 1407.050781 2191.410156 1363.238281 C 2163.429688 1295.019531 2155.929688 1469.820312 2146.761719 1422.609375 C 2138.800781 1381.621094 2060.148438 1311.070312 2092.621094 1387.21875 C 2106.851562 1420.621094 2061.011719 1340.710938 2046.261719 1374.300781 C 2019.421875 1435.429688 2124.101562 1505.640625 2167.539062 1515.621094 "/>
<path fill-rule="evenodd" fill="rgb(74.21875%, 41.601562%, 74.414062%)" fill-opacity="1" d="M 2186.648438 1584.859375 C 2189.269531 1588 2197.761719 1580.308594 2197.980469 1580.199219 C 2238.738281 1560.410156 2285.648438 1523.71875 2297.851562 1477.960938 C 2316.828125 1406.71875 2205.121094 1541.371094 2226.378906 1498.230469 C 2244.828125 1460.78125 2224.890625 1357.019531 2204.671875 1437.300781 C 2195.800781 1472.5 2207.640625 1381.140625 2175.578125 1398.96875 C 2117.230469 1431.410156 2158.109375 1550.640625 2186.648438 1584.859375 "/>
<path fill-rule="evenodd" fill="rgb(74.21875%, 41.601562%, 74.414062%)" fill-opacity="1" d="M 2146.53125 1241.339844 C 2150.019531 1242.148438 2151.871094 1232.269531 2151.96875 1232.078125 C 2169.941406 1196.628906 2183.230469 1146.109375 2167.46875 1107.691406 C 2142.921875 1047.859375 2136.351562 1201.171875 2128.308594 1159.761719 C 2121.328125 1123.820312 2052.351562 1061.941406 2080.820312 1128.730469 C 2093.300781 1158.019531 2053.101562 1087.929688 2040.160156 1117.390625 C 2016.621094 1171.011719 2108.429688 1232.578125 2146.53125 1241.339844 "/>
<path fill-rule="evenodd" fill="rgb(74.21875%, 41.601562%, 74.414062%)" fill-opacity="1" d="M 2163.300781 1302.070312 C 2165.589844 1304.820312 2173.039062 1298.078125 2173.230469 1297.980469 C 2208.980469 1280.628906 2250.121094 1248.441406 2260.820312 1208.308594 C 2277.46875 1145.820312 2179.488281 1263.921875 2198.140625 1226.089844 C 2214.320312 1193.238281 2196.828125 1102.238281 2179.101562 1172.640625 C 2171.320312 1203.519531 2181.699219 1123.390625 2153.578125 1139.03125 C 2102.410156 1167.480469 2138.261719 1272.050781 2163.300781 1302.070312 "/>
<path fill-rule="evenodd" fill="rgb(74.21875%, 41.601562%, 74.414062%)" fill-opacity="1" d="M 2037.988281 972.011719 C 2041.050781 972.71875 2042.671875 964.058594 2042.75 963.890625 C 2058.511719 932.800781 2070.171875 888.488281 2056.351562 854.789062 C 2034.820312 802.320312 2029.058594 936.78125 2022 900.460938 C 2015.878906 868.941406 1955.378906 814.660156 1980.351562 873.238281 C 1991.300781 898.929688 1956.039062 837.460938 1944.691406 863.300781 C 1924.050781 910.320312 2004.570312 964.328125 2037.988281 972.011719 "/>
<path fill-rule="evenodd" fill="rgb(74.21875%, 41.601562%, 74.414062%)" fill-opacity="1" d="M 2045.089844 1031.910156 C 2047.101562 1034.320312 2053.640625 1028.398438 2053.808594 1028.320312 C 2085.160156 1013.101562 2121.25 984.871094 2130.621094 949.671875 C 2145.230469 894.871094 2059.300781 998.449219 2075.648438 965.261719 C 2089.839844 936.449219 2074.511719 856.640625 2058.949219 918.390625 C 2052.128906 945.46875 2061.238281 875.191406 2036.570312 888.910156 C 1991.691406 913.859375 2023.128906 1005.570312 2045.089844 1031.910156 "/>
<path fill-rule="evenodd" fill="rgb(74.21875%, 41.601562%, 74.414062%)" fill-opacity="1" d="M 1911.820312 703.078125 C 1909.410156 705.410156 1903.171875 698.378906 1903 698.269531 C 1871.511719 678.53125 1836.488281 644.449219 1830.601562 606.058594 C 1821.421875 546.269531 1900.609375 665.96875 1887.089844 628.910156 C 1875.351562 596.730469 1900.800781 513.871094 1910.191406 581.128906 C 1914.300781 610.628906 1912.730469 535.070312 1937.308594 552.449219 C 1982.019531 584.070312 1938.128906 677.691406 1911.820312 703.078125 "/>
<path fill-rule="evenodd" fill="rgb(74.21875%, 41.601562%, 74.414062%)" fill-opacity="1" d="M 1913.578125 749.589844 C 1913.070312 752.898438 1903.851562 751.089844 1903.648438 751.101562 C 1866.628906 754.429688 1818.128906 748.46875 1790.210938 721.46875 C 1746.730469 679.421875 1882.210938 726.828125 1849.019531 705.488281 C 1820.210938 686.96875 1790.339844 605.601562 1838.511719 653.480469 C 1859.628906 674.480469 1812.671875 615.261719 1842.75 614.230469 C 1897.480469 612.359375 1919.171875 713.460938 1913.578125 749.589844 "/>
<path fill-rule="evenodd" fill="rgb(74.21875%, 41.601562%, 74.414062%)" fill-opacity="1" d="M 2197.25 2577.949219 C 2193.050781 2580.328125 2186.839844 2568.289062 2186.640625 2568.070312 C 2149.71875 2529.21875 2113.019531 2469.070312 2118.539062 2413.328125 C 2127.128906 2326.53125 2194.878906 2522.101562 2189.261719 2465.480469 C 2184.390625 2416.328125 2249.609375 2309.710938 2238.640625 2407.019531 C 2233.820312 2449.699219 2258.691406 2343.589844 2286.789062 2376.660156 C 2337.929688 2436.851562 2243.089844 2551.898438 2197.25 2577.949219 "/>
<path fill-rule="evenodd" fill="rgb(74.21875%, 41.601562%, 74.414062%)" fill-opacity="1" d="M 2199.058594 2662.898438 C 2197.148438 2667.339844 2184.921875 2661.5 2184.640625 2661.460938 C 2131.730469 2652.851562 2066.121094 2627.160156 2036.789062 2579.441406 C 1991.121094 2505.121094 2163.378906 2619.871094 2124.660156 2578.179688 C 2091.050781 2541.988281 2078.480469 2417.628906 2128.609375 2501.761719 C 2150.589844 2538.660156 2106.210938 2439.121094 2148.589844 2448.460938 C 2225.71875 2465.441406 2219.800781 2614.429688 2199.058594 2662.898438 "/>
</svg>
